<svg width="53" height="53" viewBox="0 0 53 53" fill="none" xmlns="http://www.w3.org/2000/svg">
<path d="M47.9871 39.7499L30.3204 8.83326C29.9352 8.15354 29.3766 7.58817 28.7016 7.19483C28.0265 6.80148 27.2592 6.59424 26.4779 6.59424C25.6967 6.59424 24.9294 6.80148 24.2543 7.19483C23.5793 7.58817 23.0207 8.15354 22.6354 8.83326L4.96878 39.7499C4.57941 40.4243 4.37524 41.1895 4.37696 41.9682C4.37869 42.7469 4.58625 43.5113 4.9786 44.1839C5.37095 44.8565 5.93415 45.4134 6.6111 45.7982C7.28806 46.183 8.05472 46.3819 8.83336 46.3749H44.1667C44.9416 46.3741 45.7027 46.1695 46.3734 45.7815C47.0442 45.3935 47.6011 44.8359 47.9882 44.1646C48.3754 43.4933 48.579 42.732 48.5788 41.9571C48.5786 41.1822 48.3746 40.421 47.9871 39.7499Z" stroke="black" stroke-width="2" stroke-linecap="round" stroke-linejoin="round"/>
<path d="M26.5 19.875V28.7083" stroke="black" stroke-width="2" stroke-linecap="round" stroke-linejoin="round"/>
<path d="M26.5 37.5417H26.5221" stroke="black" stroke-width="2" stroke-linecap="round" stroke-linejoin="round"/>
</svg>
