<svg width="120" height="153" viewBox="0 0 120 153" fill="none" xmlns="http://www.w3.org/2000/svg">
<g clip-path="url(#clip0_75_89)">
<path d="M118.41 74.6501C116.738 74.5536 115.051 74.9398 113.481 75.9715C111.303 77.3995 110.495 79.8135 109.09 81.8565C107.801 83.7216 106.702 80.8655 105.787 79.7474C103.859 77.3843 100.797 76.1239 97.7649 77.0438C97.678 77.0692 97.6013 77.1048 97.5195 77.1302C96.7782 64.5013 93.4396 54.4134 87.5037 46.8564C80.7141 38.217 71.3681 33.8972 59.4657 33.8972C47.5634 33.8972 38.0384 38.217 31.2539 46.8564C25.0471 54.759 21.688 65.4415 21.1563 78.8886C19.1112 79.3205 17.1889 80.1337 15.5937 81.5363C14.157 82.7967 13.2163 84.4941 12.0966 86.0136C10.9003 87.6398 10.3532 88.0261 8.64045 86.8572C5.95629 85.0277 3.25167 82.9339 0.0204508 84.3772C0.0102254 83.8232 0 83.2693 0 82.7103C0 70.0509 2.35184 58.9263 7.05552 49.3416C10.6855 41.9421 15.5784 35.8081 21.7289 30.9496L16.4475 23.2503C15.9311 23.3215 15.4045 23.3571 14.8728 23.3571C8.38482 23.3571 3.12385 18.1276 3.12385 11.6785C3.12385 5.22942 8.38482 0 14.8728 0C21.3608 0 26.6167 5.22942 26.6167 11.6785C26.6167 14.6617 25.4919 17.3857 23.636 19.449L28.4317 26.4317C37.1693 21.4716 47.5071 18.9865 59.4657 18.9865C71.4243 18.9865 80.6885 21.2226 89.0887 25.6999L92.3557 20.0842C90.1368 17.965 88.7563 14.9819 88.7563 11.6785C88.7563 5.22942 94.0122 0 100.505 0C106.998 0 112.249 5.22942 112.249 11.6785C112.249 18.1276 106.993 23.3571 100.505 23.3571C100.27 23.3571 100.04 23.352 99.81 23.3367L95.909 30.0501C102.576 35.0407 107.837 41.4746 111.697 49.3416C115.373 56.8325 117.607 65.2738 118.41 74.6501Z" fill="black"/>
<path d="M113.307 109.071C116.937 101.082 118.752 92.2951 118.752 82.7103C118.752 81.7041 118.732 80.708 118.701 79.7221C116.37 79.3257 115.312 81.2416 114.325 82.9898C113.001 85.3377 111.4 87.7822 108.358 87.7517C105.516 87.7263 103.946 85.7138 102.397 83.6708C101.727 82.7866 100.981 81.699 99.6975 81.821C98.8334 81.9023 98.179 82.4969 97.6728 83.2592C97.591 98.1445 94.2064 109.889 87.5037 118.478C80.7192 127.173 71.3732 131.523 59.4708 131.523C47.5685 131.523 38.0435 127.204 31.259 118.564C24.7147 110.235 21.3352 98.8102 21.1052 84.3163C19.7094 84.8753 18.4568 85.785 17.4445 87.2384C15.655 89.7947 13.7736 92.8388 10.2305 92.7779C8.60975 92.7524 7.1373 91.9901 5.8489 91.0855C4.98485 90.4757 3.49706 88.8443 2.3467 88.9511C1.61559 89.0171 0.95094 89.6676 0.342529 90.5672C1.12988 100.025 3.36413 108.532 7.07083 116.084C11.7745 125.669 18.5897 133.124 27.5165 138.45C36.4432 143.776 47.0981 146.439 59.481 146.439C64.241 146.439 68.4692 146.022 72.1605 145.199C77.1607 144.132 81.5065 143.603 85.1979 143.603C88.8892 143.603 92.279 144.223 95.7351 145.468C99.1862 146.714 103.772 149.224 109.483 153.01L120.02 140.051C112.28 133.663 104.779 129.816 97.5195 128.515C104.422 123.545 109.688 117.065 113.323 109.076L113.307 109.071Z" fill="#0576FB"/>
<path d="M42.8699 76.9423C42.8699 73.7174 40.2398 71.103 36.9955 71.103C33.7511 71.103 31.121 73.7174 31.121 76.9423V90.6994C31.121 93.9243 33.7511 96.5387 36.9955 96.5387C40.2398 96.5387 42.8699 93.9243 42.8699 90.6994V76.9423Z" fill="#0576FB"/>
<path d="M85.9443 76.9423C85.9443 73.7174 83.3142 71.103 80.0699 71.103C76.8255 71.103 74.1954 73.7174 74.1954 76.9423V90.6994C74.1954 93.9243 76.8255 96.5387 80.0699 96.5387C83.3142 96.5387 85.9443 93.9243 85.9443 90.6994V76.9423Z" fill="#0576FB"/>
</g>
<defs>
<clipPath id="clip0_75_89">
<rect width="120" height="153" fill="white"/>
</clipPath>
</defs>
</svg>
