<svg width="175" height="44" viewBox="0 0 175 44" fill="none" xmlns="http://www.w3.org/2000/svg">
<path d="M21.48 37.8L17.88 32.96C16.8133 33.1733 15.7733 33.28 14.76 33.28C12.12 33.28 9.69333 32.6667 7.48 31.44C5.29333 30.2133 3.54667 28.5067 2.24 26.32C0.96 24.1067 0.32 21.6267 0.32 18.88C0.32 16.1333 0.96 13.6667 2.24 11.48C3.54667 9.29333 5.29333 7.58667 7.48 6.36C9.69333 5.13333 12.12 4.52 14.76 4.52C17.4 4.52 19.8133 5.13333 22 6.36C24.2133 7.58667 25.9467 9.29333 27.2 11.48C28.48 13.6667 29.12 16.1333 29.12 18.88C29.12 21.28 28.6267 23.48 27.64 25.48C26.68 27.4533 25.3333 29.0933 23.6 30.4L29.76 37.8H21.48ZM7.32 18.88C7.32 21.36 7.98667 23.3467 9.32 24.84C10.68 26.3067 12.4933 27.04 14.76 27.04C17 27.04 18.7867 26.2933 20.12 24.8C21.48 23.3067 22.16 21.3333 22.16 18.88C22.16 16.4 21.48 14.4267 20.12 12.96C18.7867 11.4667 17 10.72 14.76 10.72C12.4933 10.72 10.68 11.4533 9.32 12.92C7.98667 14.3867 7.32 16.3733 7.32 18.88ZM55.0434 10.68V33H48.2034V29.96C47.5101 30.9467 46.5634 31.7467 45.3634 32.36C44.1901 32.9467 42.8834 33.24 41.4434 33.24C39.7368 33.24 38.2301 32.8667 36.9234 32.12C35.6168 31.3467 34.6034 30.24 33.8834 28.8C33.1634 27.36 32.8034 25.6667 32.8034 23.72V10.68H39.6034V22.8C39.6034 24.2933 39.9901 25.4533 40.7634 26.28C41.5368 27.1067 42.5768 27.52 43.8834 27.52C45.2168 27.52 46.2701 27.1067 47.0434 26.28C47.8168 25.4533 48.2034 24.2933 48.2034 22.8V10.68H55.0434ZM63.3966 8.36C62.1966 8.36 61.2099 8.01333 60.4366 7.32C59.6899 6.6 59.3166 5.72 59.3166 4.68C59.3166 3.61333 59.6899 2.73333 60.4366 2.04C61.2099 1.32 62.1966 0.959998 63.3966 0.959998C64.5699 0.959998 65.5299 1.32 66.2766 2.04C67.0499 2.73333 67.4366 3.61333 67.4366 4.68C67.4366 5.72 67.0499 6.6 66.2766 7.32C65.5299 8.01333 64.5699 8.36 63.3966 8.36ZM66.7966 10.68V33H59.9566V10.68H66.7966ZM78.1534 27.36H87.8334V33H70.5134V27.56L79.7934 16.32H70.5934V10.68H87.6334V16.12L78.1534 27.36ZM98.4372 3.4V33H91.5972V3.4H98.4372ZM126.194 10.68L112.194 43.6H104.834L109.954 32.24L100.874 10.68H108.514L113.674 24.64L118.794 10.68H126.194Z" fill="#292929"/>
<path d="M131.868 33.32C130.668 33.32 129.681 32.9733 128.908 32.28C128.161 31.56 127.788 30.68 127.788 29.64C127.788 28.5733 128.161 27.68 128.908 26.96C129.681 26.24 130.668 25.88 131.868 25.88C133.041 25.88 134.001 26.24 134.748 26.96C135.521 27.68 135.908 28.5733 135.908 29.64C135.908 30.68 135.521 31.56 134.748 32.28C134.001 32.9733 133.041 33.32 131.868 33.32ZM138.597 21.8C138.597 19.5067 139.023 17.4933 139.877 15.76C140.757 14.0267 141.943 12.6933 143.437 11.76C144.93 10.8267 146.597 10.36 148.437 10.36C150.01 10.36 151.383 10.68 152.557 11.32C153.757 11.96 154.677 12.8 155.317 13.84V10.68H162.157V33H155.317V29.84C154.65 30.88 153.717 31.72 152.517 32.36C151.343 33 149.97 33.32 148.397 33.32C146.583 33.32 144.93 32.8533 143.437 31.92C141.943 30.96 140.757 29.6133 139.877 27.88C139.023 26.12 138.597 24.0933 138.597 21.8ZM155.317 21.84C155.317 20.1333 154.837 18.7867 153.877 17.8C152.943 16.8133 151.797 16.32 150.437 16.32C149.077 16.32 147.917 16.8133 146.957 17.8C146.023 18.76 145.557 20.0933 145.557 21.8C145.557 23.5067 146.023 24.8667 146.957 25.88C147.917 26.8667 149.077 27.36 150.437 27.36C151.797 27.36 152.943 26.8667 153.877 25.88C154.837 24.8933 155.317 23.5467 155.317 21.84ZM170.545 8.36C169.345 8.36 168.358 8.01333 167.585 7.32C166.838 6.6 166.465 5.72 166.465 4.68C166.465 3.61333 166.838 2.73333 167.585 2.04C168.358 1.32 169.345 0.959998 170.545 0.959998C171.718 0.959998 172.678 1.32 173.425 2.04C174.198 2.73333 174.585 3.61333 174.585 4.68C174.585 5.72 174.198 6.6 173.425 7.32C172.678 8.01333 171.718 8.36 170.545 8.36ZM173.945 10.68V33H167.105V10.68H173.945Z" fill="#0576FB"/>
</svg>
