<svg width="411" height="473" viewBox="0 0 411 473" fill="none" xmlns="http://www.w3.org/2000/svg">
<g clip-path="url(#clip0_16_2391)">
<path d="M319.21 686.905H101.116C93.1681 686.905 85.2985 685.337 77.956 682.291C70.6135 679.244 63.9419 674.779 58.3222 669.15C52.7025 663.521 48.2447 656.839 45.2033 649.484C42.162 642.13 40.5966 634.247 40.5967 626.287V60.6184C40.6148 44.547 46.9968 29.139 58.3423 17.7748C69.6879 6.4106 85.0706 0.0181936 101.116 0H319.209C335.254 0.0181438 350.637 6.41052 361.982 17.7747C373.328 29.139 379.71 44.5469 379.728 60.6184V162.787H383.486V238.065H379.728V626.287C379.728 642.363 373.352 657.782 362.003 669.15C350.653 680.518 335.26 686.905 319.21 686.905ZM101.116 1.8825C85.5688 1.90009 70.6638 8.09396 59.6706 19.1053C48.6773 30.1166 42.4937 45.0461 42.4761 60.6184V626.287C42.476 634 43.9927 641.638 46.9395 648.764C49.8864 655.89 54.2057 662.365 59.6509 667.819C65.0961 673.273 71.5605 677.6 78.6749 680.552C85.7894 683.503 93.4147 685.023 101.115 685.022H319.209C334.761 685.023 349.676 678.834 360.673 667.819C371.67 656.804 377.849 641.865 377.849 626.287V236.182H381.606V164.669H377.849V60.6184C377.831 45.0461 371.647 30.1166 360.654 19.1053C349.661 8.09396 334.756 1.90009 319.209 1.8825H101.116Z" fill="#3F3D56"/>
<path d="M321.612 671.38H102.472C90.4266 671.366 78.8782 666.567 70.3605 658.035C61.8428 649.504 57.0514 637.936 57.0374 625.871V61.0345C57.0514 48.9689 61.8427 37.4015 70.3604 28.8698C78.8781 20.3381 90.4266 15.5389 102.472 15.5249H130.454L129.927 16.821C128.679 19.8934 128.204 23.226 128.543 26.5256C128.882 29.8252 130.026 32.9908 131.873 35.7438C133.721 38.4968 136.215 40.7529 139.137 42.3136C142.059 43.8744 145.32 44.692 148.631 44.6945H273.574C276.886 44.6919 280.146 43.8742 283.068 42.3134C285.99 40.7526 288.485 38.4965 290.332 35.7435C292.179 32.9905 293.323 29.825 293.662 26.5255C294.002 23.2259 293.526 19.8934 292.278 16.821L291.751 15.5249H321.612C333.658 15.5389 345.206 20.3382 353.724 28.8699C362.242 37.4015 367.033 48.969 367.047 61.0345V625.871C367.033 637.936 362.242 649.504 353.724 658.035C345.206 666.567 333.658 671.366 321.612 671.38ZM102.472 17.4074C90.9248 17.4208 79.854 22.0215 71.6887 30.2002C63.5233 38.379 58.9302 49.468 58.9168 61.0345V625.871C58.9303 637.437 63.5235 648.526 71.6888 656.705C79.8541 664.884 90.9249 669.484 102.472 669.498H321.612C333.16 669.484 344.23 664.884 352.396 656.705C360.561 648.526 365.154 637.437 365.167 625.871V61.0345C365.154 49.468 360.561 38.3791 352.396 30.2003C344.23 22.0215 333.16 17.4208 321.612 17.4074H294.499C295.614 20.7336 295.924 24.2777 295.402 27.7472C294.88 31.2167 293.542 34.5121 291.498 37.3616C289.454 40.211 286.762 42.5326 283.646 44.135C280.53 45.7373 277.078 46.5743 273.575 46.577H148.631C145.128 46.5744 141.676 45.7374 138.559 44.1351C135.443 42.5328 132.752 40.2112 130.707 37.3618C128.663 34.5124 127.325 31.2169 126.803 27.7474C126.281 24.2778 126.59 20.7337 127.705 17.4074H102.472Z" fill="#CCCCCC"/>
<path d="M391.151 367.809H19.8494C14.5868 367.803 9.5415 365.707 5.82029 361.98C2.09908 358.252 0.00592201 353.199 0 347.927V228.635C0.00592201 223.364 2.09908 218.31 5.82029 214.583C9.5415 210.855 14.5868 208.759 19.8494 208.753H391.151C396.413 208.759 401.459 210.855 405.18 214.583C408.901 218.31 410.994 223.364 411 228.635V347.927C410.994 353.199 408.901 358.252 405.18 361.98C401.459 365.707 396.413 367.803 391.151 367.809Z" fill="white"/>
<path d="M391.151 367.809H19.8494C14.5868 367.803 9.5415 365.707 5.82029 361.98C2.09908 358.252 0.00592201 353.199 0 347.927V228.635C0.00592201 223.364 2.09908 218.31 5.82029 214.583C9.5415 210.855 14.5868 208.759 19.8494 208.753H391.151C396.413 208.759 401.459 210.855 405.18 214.583C408.901 218.31 410.994 223.364 411 228.635V347.927C410.994 353.199 408.901 358.252 405.18 361.98C401.459 365.707 396.413 367.803 391.151 367.809ZM19.8494 211.092C15.206 211.097 10.7542 212.947 7.47083 216.236C4.18742 219.525 2.34048 223.984 2.33522 228.635V347.927C2.34048 352.578 4.18742 357.037 7.47083 360.326C10.7542 363.615 15.206 365.465 19.8494 365.47H391.151C395.794 365.465 400.246 363.615 403.529 360.326C406.813 357.037 408.66 352.578 408.665 347.927V228.635C408.66 223.984 406.813 219.525 403.529 216.236C400.246 212.947 395.794 211.097 391.151 211.092H19.8494Z" fill="#3F3D56"/>
<path d="M254.191 281.849H124.585C122.108 281.849 119.732 280.863 117.98 279.108C116.229 277.354 115.245 274.974 115.245 272.493C115.245 270.011 116.229 267.631 117.98 265.877C119.732 264.122 122.108 263.136 124.585 263.136H254.191C256.668 263.136 259.044 264.122 260.796 265.877C262.547 267.631 263.532 270.011 263.532 272.493C263.532 274.974 262.547 277.354 260.796 279.108C259.044 280.863 256.668 281.849 254.191 281.849Z" fill="#75F99A"/>
<path d="M374.455 313.426H124.585C122.108 313.426 119.732 312.441 117.98 310.686C116.229 308.931 115.245 306.552 115.245 304.07C115.245 301.589 116.229 299.209 117.98 297.454C119.732 295.7 122.108 294.714 124.585 294.714H374.455C376.932 294.714 379.308 295.7 381.06 297.454C382.812 299.209 383.796 301.589 383.796 304.07C383.796 306.552 382.812 308.931 381.06 310.686C379.308 312.441 376.932 313.426 374.455 313.426Z" fill="#75F99A"/>
<path d="M62.2329 323.367C81.5786 323.367 97.2613 307.659 97.2613 288.281C97.2613 268.904 81.5786 253.195 62.2329 253.195C42.8873 253.195 27.2045 268.904 27.2045 288.281C27.2045 307.659 42.8873 323.367 62.2329 323.367Z" fill="#75F99A"/>
<path d="M374.441 351.436H341.748C339.27 351.436 336.895 350.45 335.143 348.696C333.391 346.941 332.407 344.561 332.407 342.08C332.407 339.598 333.391 337.219 335.143 335.464C336.895 333.709 339.27 332.724 341.748 332.724H374.441C375.668 332.724 376.882 332.966 378.016 333.436C379.149 333.906 380.179 334.595 381.046 335.464C381.913 336.333 382.601 337.364 383.071 338.499C383.54 339.635 383.782 340.851 383.782 342.08C383.782 343.309 383.54 344.525 383.071 345.66C382.601 346.796 381.913 347.827 381.046 348.696C380.179 349.565 379.149 350.254 378.016 350.724C376.882 351.194 375.668 351.436 374.441 351.436Z" fill="white"/>
<path d="M374.441 351.436H341.748C339.27 351.436 336.895 350.45 335.143 348.696C333.391 346.941 332.407 344.561 332.407 342.08C332.407 339.598 333.391 337.219 335.143 335.464C336.895 333.709 339.27 332.724 341.748 332.724H374.441C375.668 332.724 376.882 332.966 378.016 333.436C379.149 333.906 380.179 334.595 381.046 335.464C381.913 336.333 382.601 337.364 383.071 338.499C383.54 339.635 383.782 340.851 383.782 342.08C383.782 343.309 383.54 344.525 383.071 345.66C382.601 346.796 381.913 347.827 381.046 348.696C380.179 349.565 379.149 350.254 378.016 350.724C376.882 351.194 375.668 351.436 374.441 351.436Z" fill="#CCCCCC"/>
<path d="M318.2 178.169H111.594C108.665 178.166 105.858 176.999 103.787 174.925C101.717 172.851 100.552 170.039 100.549 167.106V100.727C100.552 97.7936 101.717 94.9816 103.787 92.9075C105.858 90.8335 108.665 89.6669 111.594 89.6636H318.2C321.129 89.6669 323.936 90.8335 326.007 92.9075C328.077 94.9816 329.242 97.7936 329.245 100.727V167.106C329.242 170.039 328.077 172.851 326.007 174.925C323.936 176.999 321.129 178.166 318.2 178.169ZM111.594 90.9651C109.01 90.968 106.533 91.9974 104.706 93.8275C102.879 95.6575 101.851 98.1387 101.848 100.727V167.106C101.851 169.694 102.879 172.175 104.706 174.005C106.533 175.835 109.01 176.864 111.594 176.867H318.2C320.784 176.864 323.261 175.835 325.088 174.005C326.915 172.175 327.943 169.694 327.946 167.106V100.727C327.943 98.1387 326.915 95.6575 325.088 93.8275C323.261 91.9974 320.784 90.968 318.2 90.9651H111.594Z" fill="#CCCCCC"/>
<path d="M241.99 130.337H169.873C168.496 130.335 167.176 129.786 166.202 128.809C165.229 127.833 164.682 126.51 164.682 125.131C164.682 123.751 165.229 122.428 166.202 121.452C167.176 120.476 168.496 119.926 169.873 119.924H241.99C243.368 119.926 244.688 120.476 245.661 121.452C246.634 122.428 247.181 123.751 247.181 125.131C247.181 126.51 246.634 127.833 245.661 128.809C244.688 129.786 243.368 130.335 241.99 130.337Z" fill="#E6E6E6"/>
<path d="M308.91 147.908H169.873C168.496 147.906 167.175 147.356 166.202 146.38C165.229 145.404 164.682 144.081 164.682 142.701C164.682 141.322 165.229 139.999 166.202 139.022C167.175 138.046 168.496 137.497 169.873 137.495H308.91C309.593 137.494 310.27 137.628 310.901 137.889C311.533 138.151 312.107 138.534 312.59 139.018C313.073 139.501 313.457 140.075 313.719 140.707C313.98 141.339 314.115 142.017 314.115 142.701C314.115 143.386 313.98 144.063 313.719 144.695C313.457 145.327 313.073 145.902 312.59 146.385C312.107 146.869 311.533 147.252 310.901 147.513C310.27 147.774 309.593 147.908 308.91 147.908Z" fill="#E6E6E6"/>
<path d="M135.178 153.439C145.942 153.439 154.669 144.698 154.669 133.916C154.669 123.133 145.942 114.393 135.178 114.393C124.413 114.393 115.686 123.133 115.686 133.916C115.686 144.698 124.413 153.439 135.178 153.439Z" fill="#E6E6E6"/>
<path d="M308.903 169.058H290.711C290.028 169.059 289.351 168.925 288.72 168.664C288.088 168.402 287.514 168.019 287.031 167.536C286.548 167.052 286.164 166.478 285.902 165.846C285.641 165.214 285.506 164.536 285.506 163.852C285.506 163.167 285.641 162.49 285.902 161.858C286.164 161.226 286.548 160.651 287.031 160.168C287.514 159.684 288.088 159.301 288.72 159.04C289.351 158.779 290.028 158.645 290.711 158.646H308.903C310.28 158.647 311.6 159.197 312.573 160.173C313.547 161.149 314.093 162.472 314.093 163.852C314.093 165.231 313.547 166.554 312.573 167.531C311.6 168.507 310.28 169.056 308.903 169.058Z" fill="white"/>
<path d="M308.903 169.058H290.711C290.028 169.059 289.351 168.925 288.72 168.664C288.088 168.402 287.514 168.019 287.031 167.536C286.548 167.052 286.164 166.478 285.902 165.846C285.641 165.214 285.506 164.536 285.506 163.852C285.506 163.167 285.641 162.49 285.902 161.858C286.164 161.226 286.548 160.651 287.031 160.168C287.514 159.684 288.088 159.301 288.72 159.04C289.351 158.779 290.028 158.645 290.711 158.646H308.903C310.28 158.647 311.6 159.197 312.573 160.173C313.547 161.149 314.093 162.472 314.093 163.852C314.093 165.231 313.547 166.554 312.573 167.531C311.6 168.507 310.28 169.056 308.903 169.058Z" fill="#CCCCCC"/>
<path d="M318.2 485.017H111.594C108.665 485.014 105.858 483.847 103.787 481.773C101.717 479.699 100.552 476.887 100.549 473.954V407.575C100.552 404.642 101.717 401.83 103.787 399.756C105.858 397.682 108.665 396.515 111.594 396.512H318.2C321.129 396.515 323.936 397.682 326.007 399.756C328.077 401.83 329.242 404.642 329.245 407.575V473.954C329.242 476.887 328.077 479.699 326.007 481.773C323.936 483.847 321.129 485.014 318.2 485.017ZM111.594 397.813C109.01 397.816 106.533 398.846 104.706 400.676C102.879 402.506 101.851 404.987 101.848 407.575V473.954C101.851 476.542 102.879 479.023 104.706 480.853C106.533 482.683 109.01 483.713 111.594 483.715H318.2C320.784 483.713 323.261 482.683 325.088 480.853C326.915 479.023 327.943 476.542 327.946 473.954V407.575C327.943 404.987 326.915 402.506 325.088 400.676C323.261 398.846 320.784 397.816 318.2 397.813H111.594Z" fill="#CCCCCC"/>
<path d="M241.99 437.185H169.873C168.494 437.185 167.172 436.636 166.198 435.66C165.223 434.684 164.675 433.359 164.675 431.979C164.675 430.598 165.223 429.274 166.198 428.297C167.172 427.321 168.494 426.772 169.873 426.772H241.99C243.368 426.774 244.688 427.324 245.661 428.3C246.634 429.276 247.181 430.599 247.181 431.979C247.181 433.358 246.634 434.681 245.661 435.657C244.688 436.634 243.368 437.183 241.99 437.185Z" fill="#E6E6E6"/>
<path d="M308.91 454.756H169.873C168.496 454.754 167.175 454.204 166.202 453.228C165.229 452.252 164.682 450.929 164.682 449.55C164.682 448.17 165.229 446.847 166.202 445.871C167.175 444.894 168.496 444.345 169.873 444.343H308.91C310.289 444.343 311.611 444.892 312.586 445.868C313.56 446.844 314.108 448.169 314.108 449.55C314.108 450.93 313.56 452.254 312.586 453.231C311.611 454.207 310.289 454.756 308.91 454.756Z" fill="#E6E6E6"/>
<path d="M135.178 460.288C145.942 460.288 154.669 451.547 154.669 440.764C154.669 429.982 145.942 421.241 135.178 421.241C124.413 421.241 115.686 429.982 115.686 440.764C115.686 451.547 124.413 460.288 135.178 460.288Z" fill="#E6E6E6"/>
<path d="M308.903 475.906H290.711C289.332 475.906 288.01 475.358 287.035 474.381C286.061 473.405 285.513 472.081 285.513 470.7C285.513 469.319 286.061 467.995 287.035 467.019C288.01 466.042 289.332 465.494 290.711 465.494H308.903C310.28 465.496 311.6 466.045 312.573 467.021C313.547 467.997 314.093 469.32 314.093 470.7C314.093 472.079 313.547 473.403 312.573 474.379C311.6 475.355 310.28 475.904 308.903 475.906Z" fill="white"/>
<path d="M308.903 475.906H290.711C289.332 475.906 288.01 475.358 287.035 474.381C286.061 473.405 285.513 472.081 285.513 470.7C285.513 469.319 286.061 467.995 287.035 467.019C288.01 466.042 289.332 465.494 290.711 465.494H308.903C310.28 465.496 311.6 466.045 312.573 467.021C313.547 467.997 314.093 469.32 314.093 470.7C314.093 472.079 313.547 473.403 312.573 474.379C311.6 475.355 310.28 475.904 308.903 475.906Z" fill="#CCCCCC"/>
<path d="M191.798 412.666C204.545 412.666 214.878 402.316 214.878 389.548C214.878 376.78 204.545 366.43 191.798 366.43C179.051 366.43 168.718 376.78 168.718 389.548C168.718 402.316 179.051 412.666 191.798 412.666Z" fill="#FFB8B8"/>
<path d="M152.788 535.182C151.692 535.18 150.639 534.751 149.853 533.985C149.067 533.22 148.608 532.178 148.575 531.08C148.202 519.53 147.564 479.563 154.985 450.222C157.011 442.206 161.557 435.056 167.953 429.829C174.349 424.602 182.254 421.574 190.499 421.194C198.616 420.75 206.665 422.878 213.507 427.274C220.348 431.671 225.633 438.114 228.613 445.689C241.088 477.412 252.874 516.515 238.18 522.647C218.921 530.685 168.15 534.268 153.048 535.174C152.961 535.18 152.874 535.182 152.788 535.182Z" fill="#75F99A"/>
<path d="M241 366.182C241.363 366.555 241.754 366.899 242.171 367.211L239.748 413.828L229.67 418.995L235.469 435.249L254.197 427.837C255.71 427.238 256.988 426.164 257.84 424.775C258.691 423.387 259.07 421.759 258.92 420.137L254.014 367.258C255.619 366.058 256.822 364.397 257.462 362.495C258.102 360.594 258.149 358.543 257.597 356.614C257.044 354.686 255.919 352.971 254.37 351.699C252.821 350.426 250.922 349.656 248.926 349.491C246.93 349.326 244.93 349.774 243.194 350.775C241.458 351.776 240.067 353.282 239.207 355.094C238.347 356.906 238.057 358.938 238.377 360.918C238.698 362.899 239.612 364.735 241 366.182Z" fill="#FFB8B8"/>
<path d="M239.939 415.563L247.028 435.742C247.23 436.317 247.306 436.928 247.251 437.534C247.195 438.14 247.01 438.727 246.708 439.255C246.406 439.783 245.993 440.24 245.499 440.594C245.005 440.948 244.44 441.191 243.844 441.307L222.939 445.361C220.001 446.379 216.779 446.187 213.981 444.829C211.183 443.471 209.037 441.057 208.014 438.116C206.99 435.175 207.173 431.948 208.521 429.141C209.87 426.335 212.275 424.179 215.208 423.146L233.977 413.223C234.515 412.939 235.107 412.774 235.714 412.74C236.321 412.706 236.927 412.803 237.493 413.025C238.059 413.248 238.57 413.589 238.992 414.027C239.414 414.465 239.737 414.989 239.939 415.563Z" fill="#75F99A"/>
<path d="M141.027 366.182C140.665 366.555 140.273 366.899 139.857 367.211L142.279 413.828L152.357 418.995L146.558 435.249L127.83 427.837C126.317 427.238 125.039 426.164 124.187 424.775C123.336 423.387 122.957 421.759 123.107 420.137L128.014 367.258C126.408 366.058 125.206 364.397 124.566 362.495C123.925 360.594 123.878 358.543 124.431 356.614C124.983 354.686 126.108 352.971 127.657 351.699C129.206 350.426 131.105 349.656 133.101 349.491C135.098 349.326 137.097 349.774 138.833 350.775C140.569 351.776 141.96 353.282 142.82 355.094C143.681 356.906 143.97 358.938 143.65 360.918C143.33 362.899 142.415 364.735 141.027 366.182Z" fill="#FFB8B8"/>
<path d="M144.534 413.025C145.1 412.803 145.707 412.705 146.314 412.74C146.92 412.774 147.513 412.938 148.05 413.223L166.819 423.146C169.753 424.179 172.157 426.335 173.506 429.141C174.855 431.947 175.037 435.175 174.014 438.116C172.99 441.057 170.844 443.471 168.046 444.829C165.248 446.187 162.027 446.379 159.088 445.361L138.184 441.307C137.587 441.191 137.022 440.948 136.528 440.594C136.034 440.24 135.622 439.783 135.319 439.255C135.017 438.727 134.832 438.14 134.777 437.534C134.721 436.928 134.797 436.317 134.999 435.742L142.088 415.563C142.29 414.989 142.612 414.465 143.035 414.027C143.457 413.589 143.968 413.247 144.534 413.025Z" fill="#75F99A"/>
<path d="M200.762 393.488C200.641 390.539 201.38 387.619 202.888 385.083C204.397 382.548 206.61 380.508 209.258 379.212C216.273 375.584 220.681 367.846 218.749 360.78C216.277 351.736 203.988 345.87 194.03 348.982C191.335 349.94 188.736 351.15 186.268 352.595L179.762 356.088C176.983 357.482 174.303 359.066 171.742 360.83C167.907 363.661 164.9 367.472 163.037 371.865C161.174 376.258 160.523 381.071 161.152 385.802C162.433 394.996 168.444 403.429 176.673 409.202C179.82 411.558 183.455 413.176 187.31 413.938C191.254 414.589 195.645 413.849 198.529 411.392C203.036 407.552 202.571 401.122 201.113 395.752C200.92 395.011 200.803 394.253 200.762 393.488Z" fill="#2F2E41"/>
</g>
<defs>
<clipPath id="clip0_16_2391">
<rect width="411" height="732" fill="white"/>
</clipPath>
</defs>
</svg>
