<svg width="86" height="65" viewBox="0 0 86 65" fill="none" xmlns="http://www.w3.org/2000/svg">
<g clip-path="url(#clip0_9_552)">
<path d="M45.4246 0.0488739L16.7726 5.09809C15.2738 5.36215 14.181 6.66381 14.181 8.18509V42.4201C12.8917 41.9427 11.4492 41.6753 9.92664 41.6753C4.44444 41.6753 0 45.1381 0 49.4095C0 53.6809 4.44444 57.1437 9.92664 57.1437C15.4088 57.1437 19.8533 53.6809 19.8533 49.4095V20.024L43.4338 15.8681V36.2651C42.1445 35.7878 40.702 35.5203 39.1794 35.5203C33.6972 35.5203 29.2528 38.9831 29.2528 43.2546C29.2528 47.526 33.6972 50.9888 39.1794 50.9888C44.6616 50.9888 49.1061 47.526 49.1061 43.2546V3.13587C49.1061 1.18677 47.3456 -0.289659 45.425 0.0488739H45.4246Z" fill="#3245CE"/>
<path d="M49.1057 3.13525V43.2548C49.1057 47.5262 44.6613 50.9886 39.1795 50.9886C36.2627 50.9886 33.6388 50.0081 31.8229 48.447C33.4242 49.3103 35.3667 49.8155 37.4609 49.8155C42.9431 49.8155 47.3875 46.3528 47.3875 42.0818V1.96223C47.3875 1.26104 47.1597 0.622063 46.7791 0.105377C48.0997 0.458721 49.1053 1.6622 49.1053 3.13525H49.1057Z" fill="#1A30A0"/>
<path d="M43.4279 14.3157L43.4334 15.8683L19.8529 20.0242V49.4097C19.8529 53.6816 15.4084 57.1443 9.92667 57.1443C7.00985 57.1443 4.38604 56.1639 2.57007 54.6028C4.17137 55.4661 6.11394 55.9713 8.20808 55.9713C13.6903 55.9713 18.1347 52.5086 18.1347 48.2367V18.8508L43.4274 14.3157H43.4279Z" fill="#1A30A0"/>
<path d="M8.65003 42.7491C7.08726 42.9945 2.75544 44.1032 0.954292 48.9519C0.752753 49.4948 1.48608 49.8824 1.81634 49.4068C3.19281 47.4263 5.49019 45.024 8.81389 44.3622C9.03872 44.3173 9.20003 44.1193 9.20384 43.8899L9.21485 43.2425C9.21993 42.9387 8.95022 42.7017 8.64961 42.7491H8.65003Z" fill="#5871ED"/>
<path d="M38.1539 36.6056C36.5912 36.851 32.2593 37.9597 30.4582 42.8083C30.2567 43.3512 30.99 43.7389 31.3202 43.2632C32.6967 41.2828 34.9941 38.8805 38.3178 38.2187C38.5426 38.1738 38.7039 37.9758 38.7077 37.7464L38.7188 37.099C38.7238 36.7951 38.4541 36.5582 38.1535 36.6056H38.1539Z" fill="#5871ED"/>
<path d="M16.016 8.9707L16.1024 16.3676C16.1024 16.3676 17.987 8.29617 24.0166 5.71359L17.7714 6.84472C16.7455 7.03049 16.0037 7.92887 16.016 8.9707Z" fill="#5871ED"/>
<path d="M84.8678 41.6142C84.7094 42.13 84.2128 42.3822 83.7979 42.1567C83.4583 41.9709 83.2855 41.5198 83.388 41.0869C83.9033 38.9038 85.0211 32.4391 81.1973 29.011C78.3669 26.4733 73.6494 25.2478 70.3951 24.6778V57.2654C70.3951 61.5372 65.9507 65 60.4689 65C58.4679 65 56.4491 64.5345 54.6958 63.5583C54.1678 63.2642 53.6602 62.9218 53.1982 62.5308C53.1699 62.5067 53.1411 62.4826 53.1127 62.458C51.5156 61.0857 50.5422 59.264 50.5422 57.2654C50.5422 52.9939 54.9871 49.5312 60.4693 49.5312C61.9919 49.5312 63.434 49.7986 64.7232 50.2759V13.1122C64.7232 12.3294 65.0408 11.6206 65.5539 11.1077C66.0667 10.5952 66.7767 10.2779 67.5596 10.2779C67.9563 10.2779 68.3348 10.3595 68.6778 10.5072C69.688 10.9401 70.3955 11.9434 70.3955 13.1122C70.3955 15.9402 71.7733 18.599 74.1028 20.2028C79.8649 24.1696 89.2576 27.2574 84.8678 41.6146V41.6142Z" fill="#3245CE"/>
<path d="M83.388 41.0869C83.9033 38.9038 85.021 32.4391 81.1973 29.011C78.3669 26.4733 73.6493 25.2478 70.3951 24.6778V57.2654C70.3951 61.5372 65.9506 65 60.4688 65C58.4679 65 56.4491 64.5345 54.6958 63.5583C54.1678 63.2642 53.6601 62.9218 53.1982 62.5308C53.1698 62.5067 53.141 62.4826 53.1127 62.458C54.714 63.3213 56.6561 63.827 58.7507 63.827C64.2329 63.827 68.6777 60.3642 68.6777 56.0919V10.5068C69.688 10.9397 70.3955 11.943 70.3955 13.1118V17.935C70.3955 20.8955 72.4113 23.4764 75.2849 24.1932C75.312 24.2004 75.3391 24.2068 75.3671 24.214C79.997 25.3438 87.8561 30.7862 83.3884 41.0869H83.388Z" fill="#1A30A0"/>
<path d="M59.1924 50.6052C57.6296 50.8506 53.2978 51.9593 51.4967 56.8079C51.2951 57.3509 52.0284 57.7385 52.3587 57.2628C53.7352 55.2824 56.0325 52.8801 59.3562 52.2183C59.5811 52.1734 59.7424 51.9754 59.7462 51.746L59.7572 51.0986C59.7623 50.7947 59.4926 50.5578 59.192 50.6052H59.1924Z" fill="#5871ED"/>
</g>
<defs>
<clipPath id="clip0_9_552">
<rect width="86" height="65" fill="white"/>
</clipPath>
</defs>
</svg>
