<svg width="88" height="80" viewBox="0 0 88 80" fill="none" xmlns="http://www.w3.org/2000/svg">
<g clip-path="url(#clip0_9_478)">
<path d="M24.6636 0.800842C17.2482 4.44129 19.8976 24.9445 30.5756 46.5934C41.2559 68.2424 55.9234 82.8419 63.3388 79.1991C70.7542 75.5587 68.1072 55.0555 57.4268 33.4066C46.7465 11.7576 32.0766 -2.8396 24.6636 0.800842ZM62.3065 77.1037C55.76 80.3189 41.7295 65.2398 32.3016 46.128C22.8713 27.0163 19.1991 6.20835 25.7456 2.99314C32.2921 -0.222073 46.576 15.3744 56.0039 34.4862C65.4318 53.5979 68.8506 73.8909 62.3041 77.1061L62.3065 77.1037Z" fill="#9ABEF9"/>
<path d="M24.6636 0.800842C17.2482 4.44129 19.8976 24.9445 30.5756 46.5934C41.2559 68.2424 55.9234 82.8419 63.3388 79.1991C70.7542 75.5587 68.1072 55.0555 57.4268 33.4066C46.7465 11.7576 32.0766 -2.8396 24.6636 0.800842ZM62.3065 77.1037C55.76 80.3189 41.7295 65.2398 32.3016 46.128C22.8713 27.0163 19.1991 6.20835 25.7456 2.99314C32.2921 -0.222073 46.576 15.3744 56.0039 34.4862C65.4318 53.5979 68.8506 73.8909 62.3041 77.1061L62.3065 77.1037Z" stroke="#4B1E0A" stroke-width="2.07" stroke-miterlimit="10"/>
<path d="M22.6653 22.9884C22.6653 22.9884 22.7363 23.2577 22.8736 23.7609C23.0086 24.2641 23.2288 24.9964 23.5034 25.9296C23.6455 26.395 23.8041 26.9076 23.9746 27.4699C24.1569 28.0274 24.3534 28.6298 24.5641 29.2724C24.7677 29.9173 25.0187 30.5929 25.2649 31.3111C25.5135 32.0293 25.774 32.7829 26.0699 33.5625C26.3635 34.3421 26.6476 35.1618 26.9815 35.9957C27.3129 36.8296 27.6586 37.6919 28.0114 38.5778C28.7619 40.3331 29.5314 42.1923 30.4216 44.0727C31.2645 45.9768 32.2613 47.8833 33.2391 49.837C34.2998 51.7481 35.3297 53.7137 36.5159 55.5918C37.6192 57.5195 38.8954 59.3362 40.0958 61.1599C40.7303 62.0482 41.3909 62.9081 42.0277 63.768C42.3474 64.1979 42.6646 64.6232 42.9795 65.0484C43.3205 65.4524 43.6567 65.854 43.9929 66.2509C44.6629 67.047 45.3187 67.8313 45.9651 68.5967C46.6399 69.322 47.3218 70.0449 47.9918 70.7158C49.3319 72.0718 50.6506 73.3073 51.9244 74.3751C53.1982 75.4429 54.4365 76.343 55.599 77.0305C56.7591 77.7203 57.8506 78.188 58.7834 78.4479C59.7163 78.729 60.4905 78.7408 61.009 78.755C61.5299 78.7101 61.8069 78.6865 61.8069 78.6865C61.8069 78.6865 61.5299 78.7196 61.0114 78.781C60.4929 78.781 59.7092 78.8022 58.7621 78.5377C57.8127 78.2991 56.6999 77.8549 55.5114 77.1864C54.3205 76.5225 53.0491 75.6461 51.754 74.5854C50.4541 73.5294 49.1117 72.308 47.7432 70.9662C47.0542 70.2929 46.3747 69.596 45.6715 68.8637C45.0181 68.0983 44.3504 67.3163 43.6709 66.5202C43.3323 66.1209 42.989 65.7193 42.6457 65.3154C42.3261 64.8925 42.0041 64.4649 41.6797 64.0349C41.0357 63.1727 40.368 62.3104 39.7264 61.4221C38.5094 59.596 37.2167 57.7746 36.0992 55.8445C34.9178 53.9523 33.8926 51.9726 32.8366 50.0496C31.8659 48.0841 30.8738 46.1658 30.0381 44.2499C29.1478 42.36 28.4115 40.4795 27.6847 38.7101C27.3437 37.8171 27.0122 36.9478 26.6926 36.1068C26.3706 35.2657 26.096 34.4413 25.8142 33.6546C25.5301 32.8703 25.2768 32.112 25.0447 31.3867C24.8151 30.6614 24.5807 29.9787 24.3937 29.3267C24.1995 28.677 24.0172 28.0699 23.8491 27.5077C23.6905 26.943 23.546 26.4233 23.4158 25.9556C22.9068 24.0775 22.67 22.9908 22.67 22.9908L22.6653 22.9884Z" fill="white"/>
<g style="mix-blend-mode:multiply">
<path d="M57.5665 35.5752C48.7494 16.8793 37.927 6.20836 32.3868 3.21285C26.8465 0.217342 24.9998 3.44437 24.9998 3.44437V3.48453C25.2342 3.29554 25.478 3.12544 25.7432 2.99551C32.2897 -0.2197 46.5736 15.3768 56.0015 34.4885C65.4294 53.6003 68.8482 73.8932 62.3017 77.1084C60.8741 77.8101 59.0889 77.64 57.074 76.747C57.074 76.7517 57.074 76.7541 57.074 76.7564C72.5038 84.2098 66.3812 54.2736 57.5641 35.5776L57.5665 35.5752Z" fill="#7FA5DD"/>
</g>
<path d="M44.6085 25.0815C20.4445 24.1011 0.58479 29.9858 0.248587 38.2258C-0.0852488 46.4659 19.2299 53.9381 43.3915 54.9185C67.5531 55.8989 87.4152 50.0142 87.7514 41.7742C88.0876 33.5365 68.7701 26.0619 44.6085 25.0815ZM44.1941 26.8155C65.5265 27.6801 85.5992 34.4011 85.3033 41.6749C85.0073 48.9487 64.4516 54.0208 43.1216 53.1562C21.7893 52.2915 2.28948 45.5941 2.58544 38.3203C2.88139 31.0465 22.8618 25.9509 44.1941 26.8155ZM44.6085 25.0815C20.4445 24.1011 0.58479 29.9858 0.248587 38.2258C-0.0852488 46.4659 19.2299 53.9381 43.3915 54.9185C67.5531 55.8989 87.4152 50.0142 87.7514 41.7742C88.0876 33.5365 68.7701 26.0619 44.6085 25.0815ZM44.1941 26.8155C65.5265 27.6801 85.5992 34.4011 85.3033 41.6749C85.0073 48.9487 64.4516 54.0208 43.1216 53.1562C21.7893 52.2915 2.28948 45.5941 2.58544 38.3203C2.88139 31.0465 22.8618 25.9509 44.1941 26.8155ZM44.6085 25.0815C20.4445 24.1011 0.58479 29.9858 0.248587 38.2258C-0.0852488 46.4659 19.2299 53.9381 43.3915 54.9185C67.5531 55.8989 87.4152 50.0142 87.7514 41.7742C88.0876 33.5365 68.7701 26.0619 44.6085 25.0815ZM44.1941 26.8155C65.5265 27.6801 85.5992 34.4011 85.3033 41.6749C85.0073 48.9487 64.4516 54.0208 43.1216 53.1562C21.7893 52.2915 2.28948 45.5941 2.58544 38.3203C2.88139 31.0465 22.8618 25.9509 44.1941 26.8155Z" fill="#F460BF"/>
<path d="M48.6216 55.2681H48.6192C46.8909 55.2681 45.1317 55.2327 43.3844 55.1618C19.057 54.1743 0 46.8273 0 38.4361C0 38.3629 0 38.2896 0.00473526 38.2164C0.317262 30.5292 17.2458 24.7319 39.3808 24.7319C41.1068 24.7319 42.8706 24.7673 44.618 24.8382C68.9453 25.8257 88.0024 33.1703 88 41.5639C88 41.6371 88 41.7104 87.9953 41.786C87.6827 49.4732 70.7542 55.2705 48.6192 55.2705L48.6216 55.2681ZM0.490099 38.4361C0.490099 46.4281 19.7413 53.7137 43.4034 54.6728C45.1436 54.7437 46.898 54.7791 48.6169 54.7791C70.4843 54.7791 87.2045 49.185 87.5052 41.7623C87.5075 41.6962 87.5099 41.6277 87.5099 41.5615C87.5099 33.5672 68.2587 26.284 44.5966 25.3248C42.8564 25.254 41.0997 25.2185 39.3808 25.2185C17.5133 25.2185 0.795523 30.815 0.492467 38.2353C0.490099 38.3014 0.487731 38.37 0.487731 38.4361H0.490099ZM47.8758 53.4963C46.2895 53.4963 44.6866 53.4633 43.1121 53.3995C21.0127 52.5041 2.34158 45.6745 2.33922 38.4857C2.33922 38.4267 2.33922 38.37 2.34158 38.3109C2.64464 30.9024 21.4554 26.4777 39.4684 26.4777C41.0428 26.4777 42.6362 26.5108 44.2036 26.5745C54.4933 26.9927 64.9062 28.807 72.7714 31.5545C81.0131 34.4342 85.5519 37.9707 85.5519 41.5167C85.5519 41.5734 85.5519 41.6301 85.5495 41.6868C85.4146 44.987 81.2712 48.018 73.8818 50.2244C66.8026 52.3364 57.5665 53.4987 47.8758 53.4987V53.4963ZM2.82932 38.4857C2.82932 45.3012 21.6638 52.0411 43.1334 52.9128C44.7008 52.9766 46.2966 53.0097 47.8782 53.0097C68.1261 53.0097 84.8061 47.9211 85.0618 41.6679C85.0618 41.6182 85.0641 41.5686 85.0641 41.519C85.0641 34.7012 65.9597 27.9471 44.1847 27.0636C42.6244 26.9998 41.0381 26.9691 39.4707 26.9691C19.5235 26.9691 3.08975 32.0671 2.83168 38.3345C2.83168 38.3865 2.82932 38.4385 2.82932 38.4904V38.4857Z" fill="#4B1E0A"/>
<path d="M2.17351 41.7245C2.17351 41.7245 2.34635 41.9443 2.71806 42.3057C2.90511 42.4876 3.13477 42.712 3.42599 42.9506C3.56804 43.0735 3.72194 43.2034 3.88767 43.3451C4.06051 43.4751 4.24282 43.6145 4.43459 43.7633C4.81342 44.068 5.2609 44.3657 5.74626 44.6893C6.22215 45.0295 6.77618 45.3366 7.35625 45.6816C7.92921 46.0406 8.58031 46.3454 9.25272 46.6974C9.91802 47.0612 10.6567 47.3636 11.412 47.7108C12.1625 48.0699 12.977 48.3629 13.8128 48.6865C14.2318 48.8448 14.6533 49.0173 15.0913 49.1684C15.5317 49.3102 15.9791 49.4543 16.4314 49.6031C16.8836 49.7496 17.3429 49.8984 17.8093 50.0496C18.2734 50.2008 18.7564 50.3118 19.2394 50.4465C20.2101 50.6898 21.1832 51.0064 22.2013 51.2166C23.217 51.4411 24.2493 51.6678 25.2934 51.897C26.3423 52.1025 27.4148 52.2679 28.4897 52.4569C29.0295 52.5467 29.567 52.6482 30.1115 52.7286C30.6561 52.7971 31.203 52.8656 31.7523 52.9341C32.8485 53.0688 33.9494 53.2058 35.0504 53.3404C36.1561 53.4373 37.2618 53.5341 38.3627 53.6286C38.9144 53.6759 39.4637 53.7255 40.0106 53.7727C40.5315 53.8247 41.1021 53.794 41.6419 53.8105C43.8296 53.8247 45.9865 53.8602 48.07 53.8554C50.1511 53.8058 52.1612 53.7586 54.0695 53.7137C55.9755 53.6003 57.7749 53.4916 59.4393 53.3924C61.0967 53.2176 62.6214 53.1113 63.9639 52.9412C65.3039 52.7546 66.4807 52.6317 67.4324 52.4404C67.9107 52.3577 68.3392 52.2821 68.711 52.2183C69.0803 52.138 69.3952 52.0718 69.6485 52.0175C69.9042 51.9632 70.0984 51.9183 70.2286 51.8828C70.3588 51.8498 70.4251 51.8309 70.4251 51.8309C70.4251 51.8309 70.3588 51.8498 70.2286 51.8876C70.1008 51.9277 69.9066 51.9797 69.6533 52.0411C69.3999 52.1049 69.0874 52.1829 68.7204 52.275C68.3511 52.3506 67.9249 52.438 67.4466 52.5349C66.4949 52.7498 65.3229 52.901 63.9828 53.1231C62.6427 53.3286 61.118 53.4727 59.4583 53.6688C57.7938 53.794 55.9897 53.9287 54.0814 54.0728C52.1683 54.1389 50.1511 54.2098 48.0629 54.283C45.977 54.2972 43.8225 54.2736 41.6348 54.2712C41.0807 54.2594 40.5504 54.2925 39.9751 54.2405C39.4258 54.1956 38.8741 54.1507 38.3201 54.1035C37.2144 54.0113 36.104 53.9216 34.9936 53.8294C33.8879 53.6877 32.7846 53.546 31.6836 53.4042C31.1343 53.3333 30.585 53.2601 30.0381 53.1892C29.4912 53.1065 28.9514 53.0002 28.4116 52.9081C27.3319 52.712 26.257 52.5396 25.2034 52.3293C24.1546 52.0931 23.1175 51.8592 22.0995 51.6301C21.5881 51.5237 21.0885 51.3844 20.5937 51.245C20.0988 51.1056 19.6111 50.9686 19.1257 50.8316C18.6427 50.6875 18.1597 50.5717 17.6957 50.4111C17.2293 50.2528 16.7699 50.0969 16.3177 49.9433C15.8631 49.7898 15.418 49.6362 14.9753 49.4874C14.5373 49.3291 14.1158 49.1472 13.6968 48.9842C12.861 48.6464 12.0465 48.3392 11.296 47.966C9.77123 47.2809 8.41931 46.5509 7.26154 45.8422C6.68621 45.4808 6.13929 45.1595 5.66813 44.8051C5.1875 44.4696 4.74712 44.1578 4.37304 43.8436C4.18363 43.6924 4.00369 43.5483 3.83322 43.4113C3.67222 43.2648 3.52306 43.1278 3.38337 43.0002C3.09925 42.7522 2.8767 42.5183 2.69676 42.3317C2.33451 41.9561 2.17114 41.7316 2.17114 41.7316L2.17351 41.7245Z" fill="white"/>
<g style="mix-blend-mode:multiply">
<path d="M72.6317 30.7276C54.588 24.2924 27.9735 24.7815 14.909 28.5282C1.84675 32.275 2.58545 38.3203 2.58545 38.3203C2.8814 31.0465 22.8618 25.9508 44.1941 26.8155C65.5265 27.6801 85.5992 34.4011 85.3033 41.6749C85.2512 42.953 84.5717 44.1625 83.3737 45.2846C83.44 45.2445 83.5062 45.1996 83.5702 45.1453C86.0183 43.1089 90.6731 37.1627 72.6294 30.7252L72.6317 30.7276Z" fill="#CE41A2"/>
</g>
<path d="M51.9222 42.1641C53.7342 37.7993 51.6569 32.7954 47.2824 30.9874C42.908 29.1795 37.893 31.2522 36.081 35.617C34.2691 39.9817 36.3464 44.9856 40.7208 46.7936C45.0952 48.6015 50.1103 46.5288 51.9222 42.1641Z" fill="#4B1E0A"/>
<path d="M42.6291 46.3808C38.5189 45.6248 35.8009 41.6891 36.5562 37.5856C37.3138 33.4845 41.2606 30.7725 45.3708 31.5285C49.4811 32.2844 52.1991 36.2225 51.4438 40.3236C50.6862 44.4248 46.7393 47.1368 42.6291 46.3808Z" fill="#DE1E0A"/>
<g style="mix-blend-mode:screen" opacity="0.3">
<path d="M42.5439 43.2625C39.3737 42.679 37.2759 39.6433 37.8608 36.48C38.4432 33.3168 41.488 31.2261 44.6582 31.8072C47.8285 32.3907 49.9262 35.4264 49.3414 38.5897C48.7566 41.7529 45.7142 43.8436 42.5439 43.2625Z" fill="white"/>
</g>
<path d="M55.8547 49.1117C70.6145 29.9976 77.2747 10.4252 70.7282 5.39097C64.1817 0.359075 46.9098 11.7741 32.15 30.8859C17.3903 50 10.7301 69.5748 17.2766 74.6067C23.8231 79.6385 41.0949 68.2235 55.8547 49.1117ZM54.6757 47.7723C41.6442 64.6468 24.55 77.1132 18.7706 72.6695C12.9912 68.2258 20.7168 48.5542 33.7482 31.682C46.7772 14.8098 63.5211 2.79706 69.3005 7.24072C75.0799 11.6844 67.7047 30.9001 54.6757 47.7746V47.7723Z" fill="#A1DF23"/>
<path d="M26.5293 16.8627C26.5293 19.3834 24.4813 21.4245 21.9574 21.4245C19.4335 21.4245 17.3855 19.381 17.3855 16.8627C17.3855 14.3444 19.4335 12.301 21.9574 12.301C24.4813 12.301 26.5293 14.3444 26.5293 16.8627Z" fill="#F9D532"/>
<path d="M24.9785 16.1729C24.9785 18.0416 23.4608 19.5582 21.5857 19.5582C19.7105 19.5582 18.1929 18.0416 18.1929 16.1729C18.1929 14.3043 19.7105 12.7876 21.5857 12.7876C23.4608 12.7876 24.9785 14.3019 24.9785 16.1729Z" fill="#F9ED32"/>
<g style="mix-blend-mode:screen">
<path d="M22.6393 14.5901C22.6393 15.4335 21.9527 16.1186 21.1074 16.1186C20.2622 16.1186 19.5756 15.4335 19.5756 14.5901C19.5756 13.7467 20.2622 13.0616 21.1074 13.0616C21.9527 13.0616 22.6393 13.7467 22.6393 14.5901Z" fill="white"/>
</g>
<g style="mix-blend-mode:screen">
<path d="M20.3474 16.8249C20.3474 17.2076 20.0372 17.5171 19.6537 17.5171C19.2701 17.5171 18.96 17.2076 18.96 16.8249C18.96 16.4422 19.2701 16.1328 19.6537 16.1328C20.0372 16.1328 20.3474 16.4422 20.3474 16.8249Z" fill="white"/>
</g>
<path d="M21.1808 76.0406C19.559 76.0406 18.1952 75.6225 17.1274 74.8004C10.4862 69.6929 17.1369 49.9267 31.9559 30.737C44.1302 14.9705 58.4686 3.95935 66.8216 3.95935C68.4434 3.95935 69.8072 4.37513 70.875 5.19961C77.5185 10.3071 70.8655 30.0732 56.0465 49.2629C43.8698 65.0295 29.5314 76.043 21.1808 76.043V76.0406ZM66.8216 4.44837C58.6107 4.44837 44.4309 15.3815 32.3418 31.0371C17.6886 50.0142 10.9953 69.4732 17.4234 74.4153C18.4036 75.1689 19.6679 75.5516 21.1785 75.5516C29.3894 75.5516 43.5667 64.6185 55.6582 48.9629C70.3138 29.9858 77.0048 10.5268 70.5766 5.58468C69.5941 4.83107 68.3321 4.44837 66.8216 4.44837ZM21.7798 73.8223C20.5084 73.8223 19.4454 73.501 18.6191 72.8656C15.7779 70.6803 15.9034 64.9586 18.9742 56.7541C21.9006 48.9322 27.2135 39.7401 33.5517 31.5355C44.7648 17.0163 58.8048 6.0666 66.2131 6.0666C67.5129 6.0666 68.602 6.39734 69.4473 7.04699C75.2243 11.4907 68.5476 30.2079 54.8674 47.9234C43.4649 62.6884 29.2402 73.8223 21.7798 73.8223ZM66.2131 6.55326C58.9421 6.55326 45.0678 17.4203 33.94 31.8308C20.4658 49.2771 13.4482 68.2683 18.9174 72.4758C19.6561 73.0427 20.6173 73.3309 21.7775 73.3309C29.1005 73.3309 43.1595 62.2773 54.4768 47.6211C67.7615 30.4181 74.6182 11.6371 69.1466 7.4297C68.3866 6.84619 67.3993 6.55089 66.2107 6.55089L66.2131 6.55326Z" fill="#4B1E0A"/>
<path d="M80.2508 49.4732C80.2508 52.0836 78.1318 54.198 75.5155 54.198C72.8993 54.198 70.7803 52.0813 70.7803 49.4732C70.7803 46.8651 72.9017 44.7484 75.5155 44.7484C78.1294 44.7484 80.2508 46.8651 80.2508 49.4732Z" fill="#F9D532"/>
<path d="M78.8776 48.8637C78.8776 50.8008 77.3031 52.3718 75.3616 52.3718C73.4202 52.3718 71.8457 50.8008 71.8457 48.8637C71.8457 46.9265 73.4202 45.3555 75.3616 45.3555C77.3031 45.3555 78.8776 46.9265 78.8776 48.8637Z" fill="#F9ED32"/>
<path d="M35.9998 70.1654C35.9998 72.7758 33.8808 74.8901 31.2646 74.8901C28.6483 74.8901 26.5293 72.7734 26.5293 70.1654C26.5293 67.5573 28.6507 65.4406 31.2646 65.4406C33.8784 65.4406 35.9998 67.5549 35.9998 70.1654Z" fill="#F9D532"/>
<path d="M34.7568 69.4425C34.7568 71.4576 33.1208 73.09 31.1012 73.09C29.0816 73.09 27.4479 71.4576 27.4479 69.4425C27.4479 67.4273 29.084 65.7949 31.1012 65.7949C33.1184 65.7949 34.7568 67.4273 34.7568 69.4425Z" fill="#F9ED32"/>
<path d="M75.5155 54.4413C72.769 54.4413 70.5364 52.2112 70.5364 49.4708C70.5364 46.7304 72.7714 44.5003 75.5155 44.5003C78.2596 44.5003 80.497 46.7304 80.497 49.4708C80.497 52.2112 78.2619 54.4413 75.5155 54.4413ZM75.5155 44.9917C73.039 44.9917 71.0265 47.0021 71.0265 49.4732C71.0265 51.9442 73.0413 53.9546 75.5155 53.9546C77.9897 53.9546 80.0069 51.9442 80.0069 49.4732C80.0069 47.0021 77.992 44.9917 75.5155 44.9917Z" fill="#4B1E0A"/>
<path d="M21.9574 21.6678C19.3009 21.6678 17.1393 19.511 17.1393 16.8604C17.1393 14.2098 19.3009 12.0553 21.9574 12.0553C24.6139 12.0553 26.7732 14.2121 26.7732 16.8604C26.7732 19.5086 24.6115 21.6678 21.9574 21.6678ZM21.9574 12.5443C19.5708 12.5443 17.6294 14.4814 17.6294 16.8627C17.6294 19.244 19.5708 21.1812 21.9574 21.1812C24.344 21.1812 26.2854 19.244 26.2854 16.8627C26.2854 14.4814 24.344 12.5443 21.9574 12.5443Z" fill="#4B1E0A"/>
<path d="M31.2645 75.1335C28.5181 75.1335 26.2854 72.9034 26.2854 70.163C26.2854 67.4226 28.5204 65.1925 31.2645 65.1925C34.0086 65.1925 36.246 67.4226 36.246 70.163C36.246 72.9034 34.011 75.1335 31.2645 75.1335ZM31.2645 65.6839C28.788 65.6839 26.7755 67.6943 26.7755 70.1654C26.7755 72.6364 28.7904 74.6468 31.2645 74.6468C33.7387 74.6468 35.7559 72.6364 35.7559 70.1654C35.7559 67.6943 33.7411 65.6839 31.2645 65.6839Z" fill="#4B1E0A"/>
<g style="mix-blend-mode:screen">
<path d="M32.1572 67.8337C32.1572 68.677 31.4729 69.3621 30.6277 69.3621C29.7824 69.3621 29.0958 68.677 29.0958 67.8337C29.0958 66.9903 29.7824 66.3052 30.6277 66.3052C31.4729 66.3052 32.1572 66.9903 32.1572 67.8337Z" fill="white"/>
</g>
<g style="mix-blend-mode:screen">
<path d="M29.8653 70.0685C29.8653 70.4512 29.5551 70.7607 29.1716 70.7607C28.788 70.7607 28.4778 70.4512 28.4778 70.0685C28.4778 69.6858 28.788 69.3763 29.1716 69.3763C29.5551 69.3763 29.8653 69.6858 29.8653 70.0685Z" fill="white"/>
</g>
<g style="mix-blend-mode:screen">
<path d="M76.7349 47.184C76.7349 48.0274 76.0482 48.7125 75.203 48.7125C74.3578 48.7125 73.6711 48.0274 73.6711 47.184C73.6711 46.3406 74.3578 45.6555 75.203 45.6555C76.0482 45.6555 76.7349 46.3406 76.7349 47.184Z" fill="white"/>
</g>
<g style="mix-blend-mode:screen">
<path d="M74.4406 49.4165C74.4406 49.7992 74.1304 50.1087 73.7469 50.1087C73.3633 50.1087 73.0532 49.7992 73.0532 49.4165C73.0532 49.0338 73.3633 48.7219 73.7469 48.7219C74.1304 48.7219 74.4406 49.0314 74.4406 49.4165Z" fill="white"/>
</g>
<g style="mix-blend-mode:screen">
<path d="M44.5753 34.1082C44.5753 35.3177 43.5928 36.2981 42.3829 36.2981C41.173 36.2981 40.1881 35.3177 40.1881 34.1082C40.1881 32.8987 41.1707 31.9206 42.3829 31.9206C43.5951 31.9206 44.5753 32.901 44.5753 34.1082Z" fill="white"/>
</g>
<g style="mix-blend-mode:screen">
<path d="M41.2914 37.3069C41.2914 37.8549 40.8463 38.2991 40.297 38.2991C39.7477 38.2991 39.3026 37.8549 39.3026 37.3069C39.3026 36.7588 39.7477 36.3147 40.297 36.3147C40.8463 36.3147 41.2914 36.7588 41.2914 37.3069Z" fill="white"/>
</g>
<g style="mix-blend-mode:multiply">
<path d="M18.7706 72.6719C12.9912 68.2282 20.7168 48.5566 33.7482 31.6844C46.7773 14.8098 63.5211 2.79708 69.3005 7.24073C69.3005 7.24073 65.0388 2.78763 53.4445 10.7701C41.8526 18.7527 20.4611 41.9301 15.8063 65.0248C14.4899 73.6192 19.2536 75.9131 26.2097 72.5986C23.037 73.8247 20.4303 73.9546 18.7682 72.6742L18.7706 72.6719Z" fill="#89B718"/>
</g>
<path d="M71.5686 7.91871C71.5686 7.91871 71.6065 7.97069 71.661 8.08172C71.7178 8.19275 71.803 8.35576 71.8859 8.58255C72.0753 9.02668 72.2553 9.71177 72.4044 10.5977C72.4494 11.0442 72.511 11.5379 72.5346 12.0789C72.5346 12.3506 72.5394 12.6317 72.5394 12.9246C72.5417 13.2176 72.5488 13.5199 72.5157 13.8318C72.447 15.0815 72.2624 16.4871 71.9262 17.9896C71.8362 18.3652 71.7462 18.7456 71.6515 19.1353C71.5592 19.5251 71.4692 19.9244 71.3366 20.3165C71.0856 21.1079 70.8442 21.9324 70.5624 22.7687C70.2475 23.5932 69.9255 24.4389 69.5964 25.3059C69.2649 26.1705 68.8388 27.0163 68.4528 27.8975C68.2516 28.3345 68.0575 28.781 67.8467 29.2204C67.6218 29.6551 67.3969 30.0921 67.1696 30.5315C66.7079 31.408 66.2675 32.308 65.7751 33.1892C65.2684 34.0633 64.7593 34.9445 64.2479 35.828C63.9899 36.2674 63.7413 36.7163 63.4737 37.1533L62.6474 38.4503C62.091 39.3125 61.537 40.1748 60.983 41.0323C60.4313 41.9017 59.8252 42.7096 59.2546 43.5412C58.6887 44.3751 58.0708 45.1665 57.4836 45.9627C56.8941 46.7588 56.3069 47.5407 55.7032 48.2896C55.1042 49.0408 54.5288 49.7921 53.9417 50.5055C53.3474 51.2142 52.7649 51.9064 52.1967 52.5821C51.0697 53.9357 49.938 55.1594 48.927 56.317C47.8711 57.4344 46.9193 58.4739 46.0338 59.3574C45.1364 60.2291 44.3717 61.004 43.7159 61.6135C42.3711 62.7994 41.6039 63.4774 41.6039 63.4774C41.6039 63.4774 42.3474 62.7734 43.6496 61.545C44.2888 60.9189 45.0323 60.1228 45.9012 59.2298C46.7583 58.325 47.6816 57.262 48.7187 56.1327C49.7083 54.961 50.8188 53.7231 51.9197 52.3529C52.4737 51.6702 53.042 50.9709 53.6244 50.2551C54.1926 49.5275 54.7727 48.7857 55.3622 48.0297C55.9589 47.2809 56.5413 46.4989 57.1214 45.7052C57.7014 44.909 58.3099 44.1224 58.8734 43.2837C59.4369 42.4521 60.0454 41.6277 60.5829 40.7725C61.1298 39.9149 61.6791 39.0527 62.2283 38.1904L63.0594 36.9029C63.3293 36.4706 63.5779 36.0241 63.8383 35.587C64.3521 34.7106 64.8635 33.8341 65.3726 32.9671C65.8674 32.0931 66.3101 31.2001 66.7742 30.3307C67.0039 29.8937 67.2312 29.4614 67.4561 29.0314C67.6692 28.5944 67.8633 28.1526 68.0646 27.7203C68.4552 26.8486 68.8767 26.0052 69.2247 25.1547C69.5656 24.2995 69.8995 23.4632 70.2262 22.6506C70.5198 21.8261 70.7731 21.0111 71.0336 20.2291C71.1732 19.8393 71.268 19.4472 71.365 19.0621C71.4645 18.677 71.5592 18.2991 71.6539 17.9282C72.0043 16.4422 72.2268 15.0555 72.331 13.8176C72.3736 13.5081 72.376 13.2081 72.3807 12.9199C72.3855 12.6293 72.3926 12.3506 72.3973 12.0812C72.3878 11.545 72.3381 11.0536 72.3073 10.6071C72.1795 9.72594 72.0327 9.03612 71.8599 8.58963C71.7865 8.36048 71.7083 8.19511 71.6539 8.08408C71.6042 7.97069 71.5663 7.91635 71.5663 7.91635L71.5686 7.91871Z" fill="white"/>
</g>
<defs>
<clipPath id="clip0_9_478">
<rect width="88" height="80" fill="white"/>
</clipPath>
</defs>
</svg>
